# Blender 5.1.1
# www.blender.org
mtllib platforma.mtl
o Платформа_для_пов_механизма
v -1.371101 -0.261756 0.651404
v -1.371101 -0.296877 0.651404
v -1.371101 -0.261756 -0.627368
v -1.371101 -0.296877 -0.627368
v 0.611237 -0.261756 0.651404
v 0.611237 -0.296877 0.651404
v 0.611237 -0.261756 -0.627368
v 0.611237 -0.296877 -0.627368
v -0.900633 -0.261756 -0.627368
v -0.900633 -0.296877 -0.627368
v -0.900633 -0.261756 0.651404
v -0.900633 -0.296877 0.651404
v -1.371101 0.012996 0.651404
v -1.371101 0.012996 -0.627368
v -0.900633 0.012996 -0.627368
v -0.900633 0.012996 0.651404
v -1.371101 0.112348 0.651404
v -1.371101 0.112348 -0.627368
v -0.973000 0.112348 -0.627368
v -0.973000 0.112348 0.651404
v -1.421390 -0.261756 0.651404
v -1.421390 -0.261756 -0.627368
v -1.421390 0.012996 0.651404
v -1.421390 0.012996 -0.627368
v -1.421390 0.112348 0.651404
v -1.421390 0.112348 -0.627368
v 0.611237 -0.231730 0.651404
v 0.611237 -0.231730 -0.627368
v -0.900633 -0.231730 -0.627368
v -0.900633 -0.231730 0.651404
v -0.557603 -0.296877 -0.627368
v -0.557603 -0.261756 0.651404
v -0.557603 -0.261756 -0.627368
v -0.557603 -0.296877 0.651404
v -0.557603 -0.231730 0.651404
v -0.557603 -0.231730 -0.627368
v -1.371101 -0.261756 -0.408454
v -1.371101 -0.261756 0.432491
v -1.371101 -0.296877 0.432491
v -1.371101 -0.296877 -0.408454
v 0.611237 -0.261756 0.432491
v 0.611237 -0.261756 -0.408454
v 0.611237 -0.296877 -0.408454
v 0.611237 -0.296877 0.432491
v -0.900633 -0.296877 -0.408454
v -0.900633 -0.296877 0.432491
v -0.900633 -0.261756 -0.408454
v -0.900633 -0.261756 0.432491
v -0.900633 0.012996 -0.408454
v -0.900633 0.012996 0.432491
v -1.371101 0.112348 -0.408454
v -1.371101 0.112348 0.432491
v -0.973000 0.112348 -0.408454
v -0.973000 0.112348 0.432491
v -1.421390 -0.261756 -0.408454
v -1.421390 -0.261756 0.432491
v -1.421390 0.012996 -0.408454
v -1.421390 0.012996 0.432491
v -1.421390 0.112348 -0.408454
v -1.421390 0.112348 0.432491
v 0.611237 -0.231730 0.432491
v 0.611237 -0.231730 -0.408454
v -0.900633 -0.231730 -0.408454
v -0.900633 -0.231730 0.432491
v -0.557603 -0.231730 -0.408454
v -0.557603 -0.231730 0.432491
v -0.557603 -0.296877 -0.408454
v -0.557603 -0.296877 0.432491
v 0.593616 -0.296877 -0.627368
v 0.593616 -0.261756 0.651404
v 0.593616 -0.231730 0.651404
v 0.593616 -0.261756 -0.627368
v 0.593616 -0.296877 0.651404
v 0.593616 -0.231730 -0.627368
v 0.593616 -0.296877 -0.408454
v 0.593616 -0.296877 0.432491
v 0.593616 -0.231730 -0.408454
v 0.593616 -0.231730 0.432491
v -0.557603 0.211602 -0.408454
v -0.557603 0.211602 0.432491
v 0.593616 0.211602 -0.408454
v 0.593616 0.211602 0.432491
v -1.371101 -0.261756 0.001727
v -1.371101 -0.296877 0.001727
v 0.611237 -0.261756 0.001727
v 0.611237 -0.296877 0.001727
v -0.900633 -0.296877 0.001727
v -0.900633 -0.261756 0.001727
v -0.900633 0.012996 0.001727
v -1.371101 0.112348 0.001727
v -0.973000 0.112348 0.001727
v -1.421390 -0.261756 0.001727
v -1.421390 0.012996 0.001727
v -1.421390 0.112348 0.001727
v 0.611237 -0.231730 0.001727
v -0.900633 -0.231730 0.001727
v -0.557603 -0.231730 0.001727
v -0.557603 -0.296877 0.001727
v 0.593616 -0.231730 0.001727
v 0.593616 -0.296877 0.001727
v -0.557603 0.211602 0.001727
v 0.593616 0.211602 0.001727
vn -1.0000 -0.0000 -0.0000
vn -0.0000 -0.0000 -1.0000
vn -0.0000 -0.0000 1.0000
vn 1.0000 -0.0000 -0.0000
vn -0.0000 -1.0000 -0.0000
vn 0.8083 0.5888 -0.0000
vn -0.0000 1.0000 -0.0000
vt 0.375000 0.106564
vt 0.625000 0.106564
vt 0.625000 0.159846
vt 0.375000 0.159846
vt 0.375000 0.586329
vt 0.625000 0.586329
vt 0.625000 0.590154
vt 0.375000 0.590154
vt 0.375000 0.940668
vt 0.625000 0.940668
vt 0.625000 1.000000
vt 0.375000 1.000000
vt 0.375000 0.696718
vt 0.625000 0.696718
vt 0.625000 0.750000
vt 0.375000 0.750000
vt 0.625000 0.261971
vt 0.375000 0.261971
vt 0.815668 0.696718
vt 0.815668 0.750000
vt 0.772407 0.750000
vt 0.772407 0.696718
vt 0.184333 0.696718
vt 0.184333 0.750000
vt 0.125000 0.696718
vt 0.125000 0.750000
vt 0.184333 0.643436
vt 0.184333 0.590154
vt 0.372778 0.696718
vt 0.372778 0.750000
vt 0.375000 0.752222
vt 0.375000 0.897407
vt 0.625000 0.752222
vt 0.625000 0.897407
vt 0.227593 0.696718
vt 0.227593 0.750000
vt 0.375000 0.336433
vt 0.375000 0.336433
vt 0.627222 0.590154
vt 0.772407 0.590154
vt 0.772407 0.643436
vt 0.627222 0.643436
vt 0.627222 0.669425
vt 0.772407 0.669425
vt 0.627222 0.696718
vt 0.625000 0.336433
vt 0.227593 0.590154
vt 0.227593 0.643436
vt 0.375000 0.643436
vt 0.375000 0.669425
vt 0.627222 0.750000
vt 0.184333 0.669425
vt 0.184333 0.669425
vt 0.372778 0.590154
vt 0.372778 0.643436
vt 0.372778 0.669425
vt 0.375000 0.080575
vt 0.375000 0.080575
vt 0.125000 0.590154
vt 0.125000 0.643436
vt 0.125000 0.669425
vt 0.125000 0.669425
vt 0.375000 0.000000
vt 0.375000 0.053282
vt 0.184333 0.669425
vt 0.184333 0.669425
vt 0.815668 0.590154
vt 0.875000 0.590154
vt 0.875000 0.643436
vt 0.815668 0.643436
vt 0.815668 0.669425
vt 0.875000 0.669425
vt 0.875000 0.696718
vt 0.625000 0.643436
vt 0.625000 0.669425
vt 0.625000 0.080575
vt 0.227593 0.669425
vt 0.227593 0.669425
vt 0.625000 0.000000
vt 0.625000 0.053282
vt 0.875000 0.750000
s 0
f 37/1/1 3/4/1 4/3/1 40/2/1
f 72/5/2 7/8/2 8/7/2 69/6/2
f 11/9/3 1/12/3 2/11/3 12/10/3
f 72/5/2 74/5/2 28/8/2 7/8/2
f 41/13/4 5/16/4 6/15/4 44/14/4
f 11/9/3 16/9/3 13/12/3 1/12/3
f 3/4/2 9/18/2 10/17/2 4/3/2
f 46/19/5 68/22/5 34/21/5 12/20/5
f 50/23/6 54/23/6 20/24/6 16/24/6
f 3/4/2 14/4/2 15/18/2 9/18/2
f 14/4/2 24/4/2 26/4/2 18/4/2
f 48/23/4 50/23/4 16/24/4 11/24/4
f 14/4/2 18/4/2 19/18/2 15/18/2
f 16/9/3 20/9/3 17/12/3 13/12/3
f 3/4/2 22/4/2 24/4/2 14/4/2
f 55/1/1 57/1/1 24/4/1 22/4/1
f 57/1/1 59/1/1 26/4/1 24/4/1
f 52/25/7 17/26/7 20/24/7 54/23/7
f 17/12/3 25/12/3 23/12/3 13/12/3
f 13/12/3 23/12/3 21/12/3 1/12/3
f 37/1/5 55/1/5 22/4/5 3/4/5
f 52/25/7 60/25/7 25/26/7 17/26/7
f 47/27/1 63/27/1 29/28/1 9/28/1
f 78/29/7 71/30/7 27/16/7 61/13/7
f 70/31/3 71/31/3 35/32/3 32/32/3
f 70/31/3 32/32/3 34/34/3 73/33/3
f 41/13/4 61/13/4 27/16/4 5/16/4
f 66/35/7 35/36/7 71/30/7 78/29/7
f 9/18/2 29/18/2 36/38/2 33/37/2
f 69/39/5 75/42/5 67/41/5 31/40/5
f 100/43/5 76/45/5 68/22/5 98/44/5
f 10/17/2 9/18/2 33/37/2 31/46/2
f 29/28/7 63/27/7 65/48/7 36/47/7
f 7/8/4 28/8/4 62/49/4 42/49/4
f 85/50/4 95/50/4 61/13/4 41/13/4
f 76/45/5 73/51/5 34/21/5 68/22/5
f 88/52/1 96/53/1 63/27/1 47/27/1
f 74/54/7 77/55/7 62/49/7 28/8/7
f 99/56/7 78/29/7 61/13/7 95/50/7
f 11/24/1 30/24/1 64/23/1 48/23/1
f 83/57/5 92/58/5 55/1/5 37/1/5
f 18/59/7 26/59/7 59/60/7 51/60/7
f 90/61/7 94/62/7 60/25/7 52/25/7
f 1/63/5 21/63/5 56/64/5 38/64/5
f 93/58/1 94/58/1 59/1/1 57/1/1
f 23/63/1 25/63/1 60/64/1 58/64/1
f 92/58/1 93/58/1 57/1/1 55/1/1
f 18/59/7 51/60/7 53/27/7 19/28/7
f 90/61/7 52/25/7 54/23/7 91/65/7
f 9/28/4 15/28/4 49/27/4 47/27/4
f 88/52/4 89/66/4 50/23/4 48/23/4
f 15/28/6 19/28/6 53/27/6 49/27/6
f 89/66/6 91/65/6 54/23/6 50/23/6
f 10/67/5 45/70/5 40/69/5 4/68/5
f 87/71/5 46/19/5 39/73/5 84/72/5
f 7/8/4 42/49/4 43/74/4 8/7/4
f 85/50/4 41/13/4 44/14/4 86/75/4
f 21/63/1 23/63/1 58/64/1 56/64/1
f 83/57/1 37/1/1 40/2/1 84/76/1
f 97/77/1 101/78/1 79/48/1 65/48/1
f 36/47/7 65/48/7 77/55/7 74/54/7
f 86/75/5 44/14/5 76/45/5 100/43/5
f 8/7/5 43/74/5 75/42/5 69/39/5
f 1/63/1 38/64/1 39/80/1 2/79/1
f 5/16/3 70/31/3 73/33/3 6/15/3
f 5/16/3 27/16/3 71/31/3 70/31/3
f 44/14/5 6/15/5 73/51/5 76/45/5
f 33/37/2 36/38/2 74/5/2 72/5/2
f 33/37/2 72/5/2 69/6/2 31/46/2
f 101/78/7 80/35/7 82/29/7 102/56/7
f 65/48/2 79/48/2 81/55/2 77/55/2
f 78/29/3 82/29/3 80/35/3 66/35/3
f 99/56/4 102/56/4 82/29/4 78/29/4
f 12/10/3 34/34/3 32/32/3 11/9/3
f 32/32/3 35/32/3 30/9/3 11/9/3
f 31/40/5 67/41/5 45/70/5 10/67/5
f 98/44/5 68/22/5 46/19/5 87/71/5
f 64/23/7 66/35/7 97/77/7 96/53/7
f 45/70/5 67/41/5 98/44/5 87/71/5
f 46/19/5 12/20/5 2/81/5 39/73/5
f 63/27/7 96/53/7 97/77/7 65/48/7
f 77/55/4 81/55/4 102/56/4 99/56/4
f 79/48/7 101/78/7 102/56/7 81/55/7
f 43/74/5 86/75/5 100/43/5 75/42/5
f 66/35/1 80/35/1 101/78/1 97/77/1
f 38/64/1 83/57/1 84/76/1 39/80/1
f 42/49/4 85/50/4 86/75/4 43/74/4
f 45/70/5 87/71/5 84/72/5 40/69/5
f 49/27/6 53/27/6 91/65/6 89/66/6
f 47/27/4 49/27/4 89/66/4 88/52/4
f 51/60/7 90/61/7 91/65/7 53/27/7
f 56/64/1 58/64/1 93/58/1 92/58/1
f 58/64/1 60/64/1 94/58/1 93/58/1
f 51/60/7 59/60/7 94/62/7 90/61/7
f 38/64/5 56/64/5 92/58/5 83/57/5
f 77/55/7 99/56/7 95/50/7 62/49/7
f 48/23/1 64/23/1 96/53/1 88/52/1
f 42/49/4 62/49/4 95/50/4 85/50/4
f 64/23/7 30/24/7 35/36/7 66/35/7
f 75/42/5 100/43/5 98/44/5 67/41/5
